<?xml version="1.0" encoding="UTF-8"?><svg id="Livello_2" xmlns="http://www.w3.org/2000/svg" viewBox="0 0 85 85"><defs><style>.cls-1{fill:#1d6fed;stroke-width:0px;}</style></defs><g id="title"><path class="cls-1" d="M32.3,44.1h-7.6v8h7.5c2.6,0,4.6-.8,4.6-3.9s-1.8-4.1-4.5-4.1Z"/><path class="cls-1" d="M55.7,39.5c-3.7,0-4.8,2.1-4.9,3.7h9.6c-.5-2.9-1.8-3.6-4.7-3.7Z"/><path class="cls-1" d="M35.8,35.7c-.1-2.7-2.2-3.3-4.5-3.3h-6.6v6.8h7.1c2.3,0,4-1,4-3.5Z"/><path class="cls-1" d="M69.84,0H15.16C6.79,0,0,6.79,0,15.16v54.67c0,8.37,6.79,15.16,15.16,15.16h54.67c8.37,0,15.16-6.79,15.16-15.16V15.16c0-8.37-6.79-15.16-15.16-15.16ZM50.4,29.4h11.8v3.9h-11.8v-3.9ZM33,56.9h-14.3v-29.4h13.9c5.6,0,9.4,2,9.4,7.4.1,2.7-1.5,5.1-4,6.1,3.6,1.1,5.4,3.8,5.4,7.4,0,5.9-5.1,8.5-10.4,8.5ZM66.2,47h-15.4c.2,3.7,2,6,5.2,6,2.1-.1,4-1.3,4.9-3.2h5.2c-1.6,5-5.4,7.6-10.3,7.6-6.7,0-11-4.6-11-11.1s4.5-11.2,11-11.2c7.3,0,10.8,5.4,10.4,11.9Z"/></g></svg>