<?xml version="1.0" encoding="utf-8"?>
<!-- Generator: Adobe Illustrator 28.3.0, SVG Export Plug-In . SVG Version: 6.00 Build 0)  -->
<svg version="1.1" id="Livello_1" xmlns="http://www.w3.org/2000/svg" xmlns:xlink="http://www.w3.org/1999/xlink" x="0px" y="0px"
	 viewBox="0 0 54 54" style="enable-background:new 0 0 54 54;" xml:space="preserve">
<style type="text/css">
	.st0{fill-rule:evenodd;clip-rule:evenodd;fill:#FB43B0;}
</style>
<path class="st0" d="M45.3,30c0.1,0.7,0.1,1.4,0.1,2v13.4H37V32c0-1.7-0.8-5-4.2-5c-2.4,0-4,1.7-5,3.3v15.1h-7.5V30.1
	c-1.1-0.2-2.3-0.5-3.3-0.7v16H8.6V20.3H12c0-1.1,0-2.3,0-3.4c-0.8-0.2-1.6-0.5-2.2-1.1c-0.8-0.8-1.2-1.8-1.2-3c0-1.1,0.4-2.2,1.2-3
	c0.8-0.8,1.8-1.2,3-1.2c1.1,0,2.2,0.4,3,1.2c0.8,0.8,1.2,1.8,1.2,3c0,1.1-0.4,2.2-1.2,3c-0.8,0.8-1.8,1.2-3,1.2
	c-0.3,0-0.5,0-0.8-0.1c0,1.2,0,2.3,0,3.4h5v9.1c1.1,0.2,2.2,0.5,3.3,0.7v-9.8h7.5l0,3.3c1.2-1.6,3.8-3.3,8.4-3.3
	C42.4,20.3,44.7,25.6,45.3,30c3,0,5.8-0.1,8.7-0.2v-20c0-2.6-1-5.1-2.9-6.9S46.8,0,44.2,0H9.8C7.2,0,4.7,1,2.9,2.9
	C1,4.7,0,7.2,0,9.8v34.4c0,2.6,1,5.1,2.9,6.9C4.7,53,7.2,54,9.8,54h34.4c2.6,0,5.1-1,6.9-2.9c1.8-1.8,2.9-4.3,2.9-6.9V29.8
	C51.1,29.9,48.2,30,45.3,30z"/>
</svg>
