<?xml version="1.0" encoding="utf-8"?>
<!-- Generator: Adobe Illustrator 28.3.0, SVG Export Plug-In . SVG Version: 6.00 Build 0)  -->
<svg version="1.1" id="Livello_2_00000178204734252736871530000007784248450463256708_"
	 xmlns="http://www.w3.org/2000/svg" xmlns:xlink="http://www.w3.org/1999/xlink" x="0px" y="0px" viewBox="0 0 85 85"
	 style="enable-background:new 0 0 85 85;" xml:space="preserve">
<style type="text/css">
	.st0{fill:#0F0F0F;}
</style>
<g id="title">
	<path class="st0" d="M32.3,44.1h-7.6v8h7.5c2.6,0,4.6-0.8,4.6-3.9S35,44.1,32.3,44.1z"/>
	<path class="st0" d="M55.7,39.5c-3.7,0-4.8,2.1-4.9,3.7h9.6C59.9,40.3,58.6,39.6,55.7,39.5z"/>
	<path class="st0" d="M35.8,35.7c-0.1-2.7-2.2-3.3-4.5-3.3h-6.6v6.8h7.1C34.1,39.2,35.8,38.2,35.8,35.7z"/>
	<path class="st0" d="M69.8,0H15.2C6.8,0,0,6.8,0,15.2v54.7C0,78.2,6.8,85,15.2,85h54.7C78.2,85,85,78.2,85,69.8V15.2
		C85,6.8,78.2,0,69.8,0L69.8,0z M50.4,29.4h11.8v3.9H50.4V29.4z M33,56.9H18.7V27.5h13.9c5.6,0,9.4,2,9.4,7.4c0.1,2.7-1.5,5.1-4,6.1
		c3.6,1.1,5.4,3.8,5.4,7.4C43.4,54.3,38.3,56.9,33,56.9z M66.2,47H50.8c0.2,3.7,2,6,5.2,6c2.1-0.1,4-1.3,4.9-3.2h5.2
		c-1.6,5-5.4,7.6-10.3,7.6c-6.7,0-11-4.6-11-11.1s4.5-11.2,11-11.2C63.1,35.1,66.6,40.5,66.2,47z"/>
</g>
</svg>
