<?xml version="1.0" encoding="utf-8"?>
<!-- Generator: Adobe Illustrator 28.3.0, SVG Export Plug-In . SVG Version: 6.00 Build 0)  -->
<svg version="1.1" id="Livello_2_00000149372571263143134130000013026312078024081312_"
	 xmlns="http://www.w3.org/2000/svg" xmlns:xlink="http://www.w3.org/1999/xlink" x="0px" y="0px" viewBox="0 0 85 85"
	 style="enable-background:new 0 0 85 85;" xml:space="preserve">
<style type="text/css">
	.st0{fill:#24292F;}
</style>
<path class="st0" d="M85,15.2v54.4C85,78.1,78.1,85,69.6,85H52.7c0.2-0.7,0.3-1.7,0.3-2.8c0-1.4,0.1-6,0.1-11.8c0-4-1.3-6.6-2.9-7.9
	c9.5-1.1,19.4-4.7,19.4-21.1c0-4.7-1.6-8.5-4.4-11.5c0.4-1.1,1.9-5.5-0.4-11.3c0,0-3.6-1.1-11.7,4.4c-3.4-0.9-7-1.4-10.6-1.4
	c-3.6,0-7.2,0.5-10.6,1.4c-8.1-5.5-11.7-4.4-11.7-4.4c-2.3,5.9-0.8,10.3-0.4,11.3c-2.7,3-4.4,6.8-4.4,11.5
	c0,16.5,9.9,20.2,19.4,21.1c-1.2,1.1-2.3,3-2.7,5.7c-2.5,1.1-8.6,3-12.4-3.5c0,0-2.2-4.1-6.5-4.4c0,0-4.1,0-0.3,2.6
	c0,0,2.8,1.3,4.7,6.2c0,0,2.5,7.7,14.3,5.1c0,3.5,0.1,7,0.1,8c0,1.4,0.1,2.3,0.3,2.8H15.4C6.9,85,0,78.1,0,69.6V15.4
	C0,6.9,6.9,0,15.4,0h54.4C78.2,0,85,6.8,85,15.2z"/>
</svg>
