<?xml version="1.0" encoding="utf-8"?>
<!-- Generator: Adobe Illustrator 28.3.0, SVG Export Plug-In . SVG Version: 6.00 Build 0)  -->
<svg version="1.1" id="Livello_2_00000022542280950377748740000000447550437765654920_"
	 xmlns="http://www.w3.org/2000/svg" xmlns:xlink="http://www.w3.org/1999/xlink" x="0px" y="0px" viewBox="0 0 85 85"
	 style="enable-background:new 0 0 85 85;" xml:space="preserve">
<style type="text/css">
	.st0{fill:#0076B2;}
</style>
<g id="title">
	<path class="st0" d="M65.6,42.1c0.4,2,0.6,4.2,0.6,6.6v17.4h-9.9V50.7c0-3.7-0.1-8.4-5.1-8.4s-5.9,4-5.9,8.1v15.7h-9.8l-0.1-21.9
		c-2.1,0.2-4.2-0.3-6.2-0.7v22.6h-9.9V34.4h9.9v9.1c2.1,0.4,4.2,0.9,6.2,0.7l0-9.8h9.5v4.3h0.2c1.9-3.3,5.5-5.3,9.3-5.1
		C61.6,33.6,64.5,37,65.6,42.1c6.2,0.7,12.9,1.4,19.4,1.7V15c0-8.3-6.7-15-15-15H15C6.7,0,0,6.7,0,15v55c0,8.3,6.7,15,15,15h55
		c8.3,0,15-6.7,15-15V43.8C78.5,43.4,71.8,42.8,65.6,42.1z M24.3,18.6c3.2,0,5.7,2.6,5.7,5.7S27.4,30,24.3,30
		c-3.1,0-5.7-2.6-5.7-5.7C18.5,21.2,21.1,18.6,24.3,18.6z"/>
</g>
</svg>
