<?xml version="1.0" encoding="UTF-8"?><svg id="Livello_2" xmlns="http://www.w3.org/2000/svg" viewBox="0 0 85 85"><defs><style>.cls-1{fill:#bd081c;stroke-width:0px;}</style></defs><g id="title"><path class="cls-1" d="M0,15v55c0,8.28,6.72,15,15,15h55c8.28,0,15-6.72,15-15V15c0-8.28-6.72-15-15-15H15C6.72,0,0,6.72,0,15ZM46.1,53.1c-3,0-5.7-1.6-6.7-3.4,0,0-1.6,6.3-1.9,7.5-1.2,4.3-4.7,8.6-4.9,8.9-.1.2-.4.2-.5,0q-.1-.1-.1-.2c-.1-.6-1-6,.1-10.4.5-2.2,3.5-14.9,3.5-14.9-.6-1.4-.9-2.8-.9-4.3,0-4,2.3-7.1,5.3-7.1,2.5,0,3.7,1.9,3.7,4.1,0,2.5-1.6,6.2-2.4,9.7-.6,2.3.8,4.6,3.1,5.1.4.1.8.1,1.3.1,5.2,0,8.7-6.6,8.7-14.5,0-6-4-10.5-11.4-10.5-8.3,0-13.5,6.2-13.5,13.1-.1,1.9.6,3.9,1.8,5.4.5.4.6,1,.4,1.5-.1.5-.4,1.7-.6,2.2-.1.5-.7.9-1.2.7q-.1,0-.2-.1c-3.8-1.6-5.6-5.8-5.6-10.4,0-7.8,6.5-17.1,19.5-17.1,10.5.2,17.3,7.8,17.3,15.9,0,10.7-6,18.7-14.8,18.7Z"/></g></svg>