<?xml version="1.0" encoding="utf-8"?>
<!-- Generator: Adobe Illustrator 28.3.0, SVG Export Plug-In . SVG Version: 6.00 Build 0)  -->
<svg version="1.1" id="Livello_2_00000136390650690858700950000004690578503071850943_"
	 xmlns="http://www.w3.org/2000/svg" xmlns:xlink="http://www.w3.org/1999/xlink" x="0px" y="0px" viewBox="0 0 85 85"
	 style="enable-background:new 0 0 85 85;" xml:space="preserve">
<style type="text/css">
	.st0{fill:#0F0F0F;}
</style>
<g id="title">
	<path class="st0" d="M0,15v55c0,8.3,6.7,15,15,15h55c8.3,0,15-6.7,15-15V15c0-8.3-6.7-15-15-15H15C6.7,0,0,6.7,0,15z M46.1,53.1
		c-3,0-5.7-1.6-6.7-3.4c0,0-1.6,6.3-1.9,7.5c-1.2,4.3-4.7,8.6-4.9,8.9c-0.1,0.2-0.4,0.2-0.5,0C32,66,32,66,32,65.9
		c-0.1-0.6-1-6,0.1-10.4c0.5-2.2,3.5-14.9,3.5-14.9c-0.6-1.4-0.9-2.8-0.9-4.3c0-4,2.3-7.1,5.3-7.1c2.5,0,3.7,1.9,3.7,4.1
		c0,2.5-1.6,6.2-2.4,9.7c-0.6,2.3,0.8,4.6,3.1,5.1c0.4,0.1,0.8,0.1,1.3,0.1c5.2,0,8.7-6.6,8.7-14.5c0-6-4-10.5-11.4-10.5
		c-8.3,0-13.5,6.2-13.5,13.1c-0.1,1.9,0.6,3.9,1.8,5.4c0.5,0.4,0.6,1,0.4,1.5c-0.1,0.5-0.4,1.7-0.6,2.2c-0.1,0.5-0.7,0.9-1.2,0.7
		c-0.1,0-0.1,0-0.2-0.1c-3.8-1.6-5.6-5.8-5.6-10.4c0-7.8,6.5-17.1,19.5-17.1c10.5,0.2,17.3,7.8,17.3,15.9
		C60.9,45.1,54.9,53.1,46.1,53.1z"/>
</g>
</svg>
